<svg xmlns="http://www.w3.org/2000/svg" version="1.1" xmlns:xlink="http://www.w3.org/1999/xlink" viewBox="0 0 5.695980919251384 6.697591938808755"><g transform="matrix(0.8571428571428572,0,0,0.8571428571428572,0.8137115598930547,4.5671462635803515)"><rect width="7.646922092017319" height="7.646922092017319" x="-1.4501356629872495" y="-5.244869722547296" fill="#f9f9f9"></rect><g transform="matrix(1,0,0,1,0,0)" clip-path="url(#SvgjsClipPath29898)"><g clip-path="url(#SvgjsClipPath29893ec7bcbac-aa6b-4c7d-b034-bbaa2b3c4a33)"><path d=" M 2.5383477549629907 -0.2500000000000018 C 2.931149774922861 -0.28424569804833766 3.3033006660357165 -0.4408976433983214 3.6023463520286074 -0.6978759934755447 C 3.5605516955735363 -0.7117043004913253 3.520282943453354 -0.7297761307111146 3.4821702019468157 -0.7518087047317707 C 3.3798343002044207 -0.8103522606727562 3.2958025034965517 -0.8962108355699199 3.2394730012938315 -0.9997819314859036 C 3.035101941300905 -0.8429742215846874 2.7919358295235135 -0.7446945847413198 2.536002854473592 -0.7154627471460566 L 2.536002854473592 -0.2500000000000018 Z M 3.7201776016209944 -0.807500091355037 C 3.660050603065427 -0.8174996204523044 3.602245124188914 -0.8383572674696076 3.5495860910170873 -0.8690537292018021 C 3.4609554804091482 -0.9203278811053162 3.389855581715254 -0.9971484613033095 3.345579748439216 -1.0894743752054876 C 3.554006599850368 -1.2843251342501802 3.699370308224991 -1.5370783238116723 3.7629720355525573 -1.8152210766750394 C 3.8651357704982527 -1.823411508734074 3.9673721299517783 -1.8003060914975713 4.056084596727658 -1.7489776378494657 L 4.068395324297013 -1.7419429363812609 C 4.115996307603339 -1.7128412385068734 4.1583979659813135 -1.6759874606643343 4.193847500479955 -1.632905063624119 C 4.108608338644965 -1.3217522587721975 3.9451391189840286 -1.0375983559541813 3.7190051513762965 -0.807500091355037 Z M 4.2307796831880164 -1.7900133964139777 C 4.251068559550518 -1.90280537674496 4.261270107214811 -2.017180420750358 4.261263389550226 -2.1317826427441307 C 4.261883800524178 -2.4072266174999433 4.201839428092839 -2.679427772521936 4.085395852845125 -2.9290488091405034 L 3.846216002926284 -2.7912859053881145 L 3.846216002926284 -2.7912859053881145 L 3.6826591937905797 -2.6969036606897325 C 3.7600028983349163 -2.5185385814053096 3.7999082134327704 -2.326194962633652 3.799904218260619 -2.1317826427441418 C 3.799746337534822 -2.07162503141492 3.7960270717697275 -2.0115295266842304 3.7887659409359613 -1.951811530182579 C 3.9009500118719176 -1.9551370958324772 4.012007788444612 -1.9286369706393574 4.110603533106225 -1.8750160391547532 L 4.127017836532028 -1.8656364371971468 C 4.164013561948378 -1.843911049031794 4.198769993989049 -1.8185800900868996 4.23077968318802 -1.7900133964139777 Z" fill="#002540" transform="matrix(1,0,0,1,0,0)" fill-rule="evenodd"></path></g><g clip-path="url(#SvgjsClipPath29893ec7bcbac-aa6b-4c7d-b034-bbaa2b3c4a33)"><path d=" M 0.6600824629529474 -2.9296350342627657 C 0.543773696865647 -2.679760742629597 0.4837381593220847 -2.4073995206402996 0.4842149262478896 -2.1317826427441418 C 0.48427609368437885 -2.015965364248551 0.4948717979999251 -1.9003937005096656 0.51587108285458 -1.7864960456810763 C 0.5483562451134472 -1.8154279125774009 0.5837134834617572 -1.8409636958289544 0.6213916048778427 -1.8627053115854002 L 0.637805908303643 -1.8714986884206506 C 0.7363899406968242 -1.925265648521541 0.8473827676094825 -1.952154621161582 0.9596435004739018 -1.9494666296932266 C 0.95184960816802 -2.009926250053384 0.9479334354450214 -2.0708227358960203 0.9479189980268964 -2.1317826427441418 C 0.9481276472447382 -2.325983832049378 0.9880257750725587 -2.518093317540436 1.0651640224968753 -2.696317435567239 L 0.8611576799190697 -2.8135624600374243 L 0.8611576799190697 -2.8135624600374243 L 0.6612549131976508 -2.9308074845074668 Z M 0.5516308153181613 -1.629387712890022 C 0.5890153680557717 -1.6761757938621638 0.6344826205657998 -1.7158851847006198 0.685876368336354 -1.7466327373600534 L 0.685876368336354 -1.746632737360064 C 0.7745008535344915 -1.798264505866363 0.8767124897317463 -1.8217731821917291 0.9789889295114568 -1.814048626430322 C 1.0425051017634344 -1.5356392565726895 1.1885959745433987 -1.282891830518401 1.3981398919918495 -1.0888881500831373 C 1.3546025002481197 -0.9973053187896226 1.2845480336188837 -0.9209193989081799 1.1970646750257299 -0.8696399543241635 L 1.1941335494139778 -0.8696399543241635 C 1.1414306032238732 -0.8390375974100195 1.0836427455118631 -0.8181863085448593 1.023542038810071 -0.8080863164773819 C 0.7969657809252577 -1.037579728343312 0.6330676797466623 -1.3213737311229994 0.5475272394617111 -1.632318838501774 Z M 1.1454768642589108 -0.6955310929861485 C 1.4442470959098457 -0.4399519589871117 1.8154465109827336 -0.2841752856268771 2.20713056083512 -0.2499999999999849 L 2.20713056083512 -0.7154627471460513 C 1.952709391244284 -0.7453282709619087 1.7110782564168028 -0.8433580021073475 1.5077639898713364 -0.9991957063635528 C 1.45150677515895 -0.8956152152963717 1.3677193025071004 -0.8095961150436213 1.265653014340705 -0.7506362544870644 L 1.2492387109149021 -0.7412566525294579 C 1.2161157946472794 -0.7228873177657311 1.1813842251407507 -0.707581880356071 1.1454768642589108 -0.6955310929861485 Z" fill="#803654" transform="matrix(1,0,0,1,0,0)" fill-rule="evenodd"></path></g><g clip-path="url(#SvgjsClipPath29893ec7bcbac-aa6b-4c7d-b034-bbaa2b3c4a33)"><path d=" M 2.3724460453378846 -4.020599986956481 C 2.2087854320629328 -4.020549257013769 2.0458228482647742 -3.99926756529647 1.8876378691542686 -3.95728767374266 C 1.8681485352217941 -3.9021387526212967 1.8584278543979933 -3.8440130489197983 1.8589128381591098 -3.7855237128940464 C 1.8586536353918715 -3.68048967133205 1.8912442559903295 -3.578003443035017 1.952122632612791 -3.492411151718949 C 2.0882775900103177 -3.534408880846483 2.2299610252316917 -3.5557503187877746 2.3724460453378846 -3.555723464932771 C 2.511363779781361 -3.5563712655480453 2.6496239900895615 -3.5366198069325856 2.782803630983024 -3.4971009526977523 C 2.842951622090519 -3.5829546348105543 2.8749111052533913 -3.6853888757171918 2.874254750069651 -3.790213513872855 C 2.8741074729070766 -3.8486097161709116 2.863792149892011 -3.9065342223324078 2.8437710437074384 -3.961391249599129 C 2.6905015978353424 -4.000417742928315 2.532950930184353 -4.0201115763846955 2.374790945827283 -4.0200137618341305 Z M 1.7352193373432132 -3.909803438832299 C 1.3675016618354139 -3.7777247787868005 1.049682662304095 -3.5350601431910325 0.8253979474556978 -3.2151266688473132 L 1.0247144890547717 -3.0978816443772708 L 1.0247144890547717 -3.0978816443772708 L 1.228134606510293 -2.9806366199072287 C 1.3808110028303684 -3.1854275675909367 1.5854219961495182 -3.3457162982623228 1.8208082052063475 -3.4449269168085888 C 1.7570909321647503 -3.546477730810053 1.723170168856 -3.663880133160099 1.722908609773863 -3.783765037527006 C 1.7229203740469632 -3.82546717079458 1.7268457519896327 -3.8670761769866915 1.734633112220918 -3.9080447634655013 Z M 2.914704283511818 -3.450202942909737 C 3.1539585758527036 -3.3512193848997165 3.3618440793729896 -3.1891254250398404 3.516171259043123 -2.981222845029579 L 3.680314293301178 -3.075605089727961 L 3.680314293301178 -3.075605089727961 L 3.9194941432200627 -3.213954218602612 C 3.692693692411827 -3.537522534654209 3.3702107848080614 -3.781896104815479 2.9973620257631945 -3.9127345644440563 C 3.005632489301805 -3.8716292268653403 3.0097567314133933 -3.8297976283049433 3.0096727533325476 -3.787868613383459 C 3.009825126493276 -3.668700469750653 2.976952734754431 -3.5518208546791747 2.9147042835118344 -3.45020294290977 Z" fill="#803654" transform="matrix(1,0,0,1,0,0)" fill-rule="evenodd"></path></g><g clip-path="url(#SvgjsClipPath29893ec7bcbac-aa6b-4c7d-b034-bbaa2b3c4a33)"><path d=" M 3.3637527272320726 -1.5631442740644483 C 3.4312571840307693 -1.6792098817158165 3.5422246710583236 -1.7635958034097787 3.672107141588278 -1.7976343230045329 C 3.8020618859344277 -1.8330801593025705 3.940803906934186 -1.8149191032812935 4.057257046972364 -1.747218962482409 L 4.069567774541714 -1.74018426101421 C 4.180401324152017 -1.6723855007470423 4.260821662431573 -1.564458467129053 4.294091996401841 -1.4388645481262126 C 4.32923695767354 -1.3086966075212025 4.311095242756794 -1.169891393390738 4.243676635879726 -1.0531284176197682 C 4.17582900466779 -0.9373665695701066 4.065003669275589 -0.8530887479790801 3.935322221523518 -0.8186383686796948 C 3.805077078237571 -0.7836698504206026 3.666267513602014 -0.8020230907295609 3.5495860910170873 -0.8696399543241635 C 3.4337379707352573 -0.937390236598616 3.3494295605187863 -1.0482557960332697 3.3150960420770086 -1.1779943686803764 C 3.279583783974786 -1.3077492282525522 3.2970868710322434 -1.446297760743514 3.3637527272320726 -1.5631442740644483 Z" fill="#002540" transform="matrix(1,0,0,1,0,0)" fill-rule="evenodd"></path></g><g clip-path="url(#SvgjsClipPath29893ec7bcbac-aa6b-4c7d-b034-bbaa2b3c4a33)"><path d=" M 2.368928694603782 -3.2790252071834796 C 2.2341406924844422 -3.278770257563364 2.104732359766245 -3.3318824722946117 2.008986469480761 -3.426753938015726 C 1.912994340659048 -3.5214609225766713 1.8589435817223803 -3.6506760181596443 1.8589128381591098 -3.7855237128940464 C 1.8582450015274707 -3.9202780130339234 1.9111802747511204 -4.0497690798041255 2.0060553438690114 -4.1454659380170735 C 2.101058140616696 -4.241019304429623 2.2300821214227913 -4.294990119930207 2.3648251187473317 -4.295539569338722 C 2.499726803606097 -4.296377131117457 2.6293498399612787 -4.243176796978192 2.7247673438703557 -4.147810838506485 C 2.8206149548763757 -4.053246687366956 2.8746535893788767 -3.924271665175435 2.874840975192007 -3.7896272887505105 C 2.8758099467131206 -3.6547001427676586 2.822589610324242 -3.525028370772546 2.7271122443597466 -3.429685063627467 C 2.632607783094734 -3.3336773072897516 2.5036447533486097 -3.2794326286567723 2.368928694603782 -3.2790252071834907 Z" fill="#803654" transform="matrix(1,0,0,1,0,0)" fill-rule="evenodd"></path></g><g clip-path="url(#SvgjsClipPath29893ec7bcbac-aa6b-4c7d-b034-bbaa2b3c4a33)"><path d=" M 1.3828980388107444 -1.5607993735750414 C 1.4506796347234936 -1.444402401893599 1.4692468557518177 -1.305781217625308 1.434485849577566 -1.1756494681909637 C 1.399933950489019 -1.0463174820854233 1.31564220123364 -0.935895290560878 1.199995800637482 -0.8684675040794572 L 1.1970646750257299 -0.8684675040794572 C 1.0804648807190869 -0.8006522692932241 0.9416509149895346 -0.7820874836029557 0.8113285445192964 -0.8168796933126434 C 0.6830011248512177 -0.8507994533689351 0.5731170099935546 -0.9337388044300865 0.5053190306524931 -1.0478523915186253 L 0.502387905040741 -1.0531284176197793 C 0.43505391998747867 -1.1696919719122802 0.41671177513402097 -1.3082067899435574 0.4513863193962725 -1.4382783230038565 C 0.4855049943322901 -1.56797209774157 0.5698903399854537 -1.6787278639113432 0.685876368336354 -1.7460465122377196 L 0.6858763683363513 -1.7460465122377196 C 0.802497530119706 -1.8137993133512187 0.9412859179663963 -1.8323606782912094 1.0716124988427849 -1.7976343230045329 C 1.202871253088286 -1.7634945328313614 1.3149836374218515 -1.6781962215869908 1.3828980388107444 -1.5607993735750525 Z" fill="#803654" transform="matrix(1,0,0,1,0,0)" fill-rule="evenodd"></path></g><g clip-path="url(#SvgjsClipPath29893ec7bcbac-aa6b-4c7d-b034-bbaa2b3c4a33)"><path d=" M 2.3777220714390355 -1.3509307797736794 C 2.809773620702528 -1.3515755125179374 3.1599505894273268 -1.7014903727332067 3.160918834898902 -2.133541318111182 C 3.160273158093846 -2.565821216126046 2.8100019694538116 -2.9160924047660393 2.3777220714389937 -2.9167380815710513 C 1.945671126061057 -2.9157698360994817 1.595756265845788 -2.5655928673746855 1.5951115331015218 -2.133541318111182 C 1.5960786646922178 -1.7017186861685931 1.9458994394963556 -1.3518979113644223 2.3777220714389937 -1.3509307797736794 Z" fill="#d4d6c9" transform="matrix(1,0,0,1,0,0)" fill-rule="evenodd"></path></g></g><g><path d=" M 0.7226399958964532 0.17861338724526132 Q 0.698824877597085 0.13470426288080128 0.6750097592977168 0.10605169867687392 Q 0.6511946409983487 0.07739913447294655 0.6273795226989805 0.060654129418703295 Q 0.6035644043996123 0.04390912436446004 0.5790050636533889 0.03721112234276269 Q 0.5544457229071654 0.030513120321065568 0.5291421597140867 0.030513120321065568 Q 0.49341948226503446 0.030513120321065568 0.4591852497096927 0.042792790694177185 Q 0.42495101715435096 0.0550724610672888 0.39815900906756174 0.07963180181351237 Q 0.3713670009807725 0.10419114255973583 0.35499410714995694 0.14065804245564328 Q 0.3386212133191413 0.17712494235155085 0.3386212133191413 0.22475517895028718 Q 0.3386212133191413 0.26494319108047104 0.35945944183108847 0.30587542565751 Q 0.38029767034303563 0.3468076602345491 0.4111829018875287 0.3896004509287263 Q 0.44206813343202184 0.4323932416229035 0.47853503332792935 0.4770465884342189 Q 0.5150019332238369 0.5216999352455342 0.54588716476833 0.5693301718442705 Q 0.5767723963128231 0.6169604084430069 0.5976106248247702 0.6679396460525919 Q 0.6184488533367174 0.7189188836621769 0.6184488533367174 0.7732471222826105 Q 0.6184488533367174 0.8424598098401493 0.5845867320048033 0.8993928270245763 Q 0.5507246106728891 0.9563258442090035 0.49453581593531737 0.9965138563391872 Q 0.43834702119774555 1.036701868469371 0.3654132214059305 1.058656430651601 Q 0.29247942161411544 1.0806109928338312 0.2143360646943136 1.0806109928338312 Q 0.15479826894589316 1.0806109928338312 0.10456325378316342 1.0672149887904365 Q 0.05432823862043366 1.0538189847470418 0.017861338724526134 1.0273990878836803 Q -0.01860556117138139 1.0009791910203187 -0.03907167845990092 0.9626517350072731 Q -0.05953779574842045 0.9243242789942274 -0.05953779574842045 0.87371715260807 Q -0.05953779574842045 0.8379944751590178 -0.05060712638615738 0.8030160201568208 Q -0.04167645702389432 0.7680375651546238 -0.021582450958802412 0.733803332599282 Q -0.0014884448937105112 0.6995691000439402 0.031257342767920734 0.6653348674885985 Q 0.06400313042955198 0.6311006349332567 0.11088914458143309 0.5976106248247702 L 0.16968271788299827 0.6675675348291643 Q 0.13470426288080126 0.6854288735536904 0.10270269766602527 0.7073834357359204 Q 0.07070113245124929 0.7293379979181505 0.046141791705025845 0.7568742284517949 Q 0.021582450958802412 0.7844104589854394 0.007070113245124928 0.8175283578704983 Q -0.007442224468552556 0.8506462567555572 -0.007442224468552556 0.8908342688857409 Q -0.007442224468552556 0.9191147218662407 0.00520955712798679 0.9459067299530298 Q 0.017861338724526134 0.9726987380398191 0.045397569258170595 0.9939090777751939 Q 0.07293379979181505 1.0151194175105687 0.11609870170941987 1.0281433103305355 Q 0.15926360362702469 1.0411672031505026 0.2195456218223004 1.0411672031505026 Q 0.27461808288958933 1.0411672031505026 0.32857421028659534 1.0255385317665422 Q 0.3825303376836014 1.0099098603825818 0.42495101715435096 0.9793967400615163 Q 0.46737169662510053 0.9488836197404509 0.4937915934884621 0.902741828035425 Q 0.5202114903518237 0.8566000363303992 0.5202114903518237 0.794829573241413 Q 0.5202114903518237 0.7546415611112292 0.5004895955101594 0.7122208816404796 Q 0.4807677006684951 0.66980020216973 0.4506266915708573 0.62589107780527 Q 0.42048568247321944 0.5819819534408099 0.38587933869445 0.5365843841826393 Q 0.35127299491568065 0.4911868149244687 0.3211319858180428 0.4446729119960152 Q 0.2909909767204049 0.39815900906756174 0.27126908187874066 0.35090088369225303 Q 0.2515471870370764 0.3036427583169443 0.2515471870370764 0.25526829927135264 Q 0.2515471870370764 0.1838229443732481 0.2798276400175761 0.1350763741042289 Q 0.30810809299807584 0.0863298038352096 0.3527614398093912 0.05618879473757188 Q 0.3974147866207065 0.02604778563993393 0.4513709140177125 0.013023892819967076 Q 0.5053270414147185 0 0.5566783902477311 0 Q 0.6043086268464676 0 0.6411476379658027 0.010791225479401145 Q 0.6779866490851378 0.021582450958802513 0.7066392132890652 0.03869956723647339 Q 0.7352917774929926 0.05581668351414426 0.756874228451795 0.07777124569637417 Q 0.7784566794105974 0.09972580787860419 0.7955737956882682 0.12205248128426194 L 0.7226399958964532 0.17861338724526132 M 0.879670932182912 0.6407755267423751 Q 0.8819035995234779 0.6355659696143883 0.8819035995234779 0.6325890798269673 Q 0.8819035995234779 0.6281237451458357 0.8792988209594844 0.6262631890286976 Q 0.8766940423954911 0.6244026329115595 0.8729729301612148 0.6244026329115595 Q 0.8655307056926622 0.6244026329115595 0.8595769261178202 0.6325890798269673 L 0.7122208816404796 0.8149235793065048 L 0.6936153204690981 0.8000391303693998 L 0.8610653710115307 0.5931452901436387 Q 0.8804151546297674 0.5693301718442705 0.9016254943651422 0.5510967218963168 Q 0.922835834100517 0.532863271948363 0.9459067299530298 0.532863271948363 Q 0.9674891809118322 0.532863271948363 0.9771640727209505 0.5443987198746195 Q 0.9868389645300689 0.5559341678008759 0.9868389645300689 0.5700743942911257 Q 0.9868389645300689 0.5842146207813756 0.9816294074020822 0.6020759595059018 Q 0.9764198502740953 0.6199372982304279 0.9682334033586875 0.6392870818486646 L 0.864786483245807 0.8826478219703331 Q 0.8603211485646755 0.8930669362263067 0.8603211485646755 0.8990207158011487 Q 0.8603211485646755 0.9064629402697013 0.8662749281395175 0.9064629402697013 Q 0.8744613750549253 0.9064629402697013 0.8841362668640436 0.8915784913325961 L 1.039678758256792 0.6601253103606117 Q 1.0634938765561603 0.6244026329115595 1.0824715489509693 0.5994711809419084 Q 1.1014492213457783 0.5745397289722574 1.1181942264000215 0.558911057588297 Q 1.1349392314542648 0.5432823862043366 1.1501957916147976 0.5362122729592117 Q 1.1654523517753304 0.5291421597140867 1.1818252456061458 0.5291421597140867 Q 1.2101056985866456 0.5291421597140867 1.2249901475237506 0.5403054964169156 Q 1.2398745964608557 0.5514688331197444 1.2398745964608557 0.5730512840785469 Q 1.2398745964608557 0.5857030656750861 1.2361534842265796 0.5994711809419084 Q 1.2324323719923032 0.6132392962087306 1.228711259758027 0.6236584104647042 L 1.0992165540052126 0.9406971728250431 Q 1.0962396642177914 0.9481393972935956 1.0940069968772257 0.9552095105387206 Q 1.09177432953666 0.9622796237838455 1.09177432953666 0.9674891809118322 Q 1.09177432953666 0.9764198502740953 1.0958675529943638 0.9793967400615163 Q 1.0999607764520678 0.9823736298489374 1.106658778473765 0.9823736298489374 Q 1.1170778927297387 0.9823736298489374 1.1319623416668438 0.9719545155929639 Q 1.1468467906039488 0.9615354013369902 1.1632196844347644 0.9414413952718983 L 1.2994123922092764 0.7732471222826105 L 1.3180179533806577 0.7881315712197157 L 1.1535447926256461 0.9913042992112004 Q 1.13568345390112 1.0136309726168582 1.1200547825171596 1.0285154215539631 Q 1.1044261111331992 1.0433998704910683 1.0906579958663771 1.0519584286299037 Q 1.0768898805995548 1.0605169867687392 1.0631217653327325 1.0642380990030156 Q 1.0493536500659104 1.0679592112372918 1.0352134235756605 1.0679592112372918 Q 1.0128867501700027 1.0679592112372918 0.9980023012328977 1.054935318417325 Q 0.9831178522957926 1.0419114255973578 0.9831178522957926 1.021817419532266 Q 0.9831178522957926 1.0032118583608844 0.9920485216580557 0.9779082951678059 Q 1.0009791910203187 0.9526047319747272 1.0166078624042791 0.9161378320788196 L 1.1371718987948305 0.6311006349332567 Q 1.1394045661353962 0.62589107780527 1.1394045661353962 0.6199372982304279 Q 1.1394045661353962 0.6050528492933228 1.1252643396451465 0.6050528492933228 Q 1.1193105600703044 0.6050528492933228 1.1122404468251794 0.6087739615275991 Q 1.1051703335800545 0.6124950737618753 1.097728109111502 0.6236584104647042 L 0.8521347016492676 0.9883274094237794 Q 0.8231100262219126 1.0314923113413843 0.8011554640396826 1.049725761289338 Q 0.7792009018574526 1.0679592112372918 0.7583626733455054 1.0679592112372918 Q 0.7241284407901637 1.0679592112372918 0.7241284407901637 1.0352134235756605 Q 0.7241284407901637 1.0180963072979896 0.7326869989289991 0.9927927441049109 Q 0.7412455570678346 0.9674891809118322 0.7561300060049396 0.93176650346278 L 0.879670932182912 0.6407755267423751 L 0.879670932182912 0.6407755267423751 M 1.622404934144457 0.9406971728250431 Q 1.6194280443570361 0.9473951748467404 1.6171953770164702 0.954837399315293 Q 1.6149627096759045 0.9622796237838455 1.6149627096759045 0.9674891809118322 Q 1.6149627096759045 0.9764198502740953 1.6190559331336085 0.9793967400615163 Q 1.6231491565913123 0.9823736298489374 1.6298471586130097 0.9823736298489374 Q 1.6402662728689832 0.9823736298489374 1.6551507218060884 0.9719545155929639 Q 1.6700351707431935 0.9615354013369902 1.6864080645740092 0.9414413952718983 L 1.822600772348521 0.7732471222826105 L 1.8412063335199023 0.7881315712197157 L 1.6767331727648909 0.9913042992112004 Q 1.6588718340403648 1.0136309726168582 1.6432431626564044 1.0285154215539631 Q 1.627614491272444 1.0433998704910683 1.6138463760056216 1.0519584286299037 Q 1.6000782607387996 1.0605169867687392 1.5863101454719772 1.0642380990030156 Q 1.572542030205155 1.0679592112372918 1.5584018037149052 1.0679592112372918 Q 1.5360751303092475 1.0679592112372918 1.5211906813721423 1.054935318417325 Q 1.5063062324350374 1.0419114255973578 1.5063062324350374 1.021817419532266 Q 1.5063062324350374 0.9994907461266083 1.5148647905738728 0.97567562782724 Q 1.5234233487127082 0.9518605095278719 1.5397962425435239 0.9161378320788196 Q 1.5457500221183658 0.9034860504822803 1.5543085802572012 0.8830199331937607 Q 1.5628671383960366 0.8625538159052413 1.572542030205155 0.8398550312761559 Q 1.5822169220142732 0.8171562466470706 1.5918918138233917 0.7940853507945578 Q 1.60156670563251 0.7710144549420448 1.6090089301010626 0.7520367825472358 Q 1.616451154569615 0.7330591101524268 1.6212886004741742 0.7204073285558874 Q 1.6261260463787335 0.7077555469593481 1.6261260463787335 0.7055228796187822 Q 1.6261260463787335 0.6980806551502298 1.6209164892507466 0.6980806551502298 Q 1.6142184872290493 0.6980806551502298 1.6067762627604967 0.7092439918530586 Q 1.6023109280793653 0.7151977714279006 1.5889149240359706 0.7345475550461373 Q 1.575518919992576 0.7538973386643739 1.5561691363743393 0.7806893467511631 Q 1.5368193527561027 0.8074813548379522 1.514492679350445 0.838738697605873 Q 1.4921660059447874 0.8699960403737939 1.4698393325391297 0.899764938248004 Q 1.4475126591334722 0.9295338361222143 1.4274186530683801 0.9540931768684376 Q 1.4073246470032883 0.9786525176146611 1.3931844205130384 0.9927927441049109 Q 1.3574617430639861 1.0285154215539631 1.3299255125303417 1.0489815388424828 Q 1.3023892819966971 1.0694476561310022 1.275597273909908 1.0694476561310022 Q 1.266666604547645 1.0694476561310022 1.2558753790682438 1.065726543896726 Q 1.2450841535888426 1.0620054316624497 1.235781373003152 1.052702651076759 Q 1.226478592417461 1.0433998704910683 1.2205248128426192 1.026654865436825 Q 1.214571033267777 1.0099098603825818 1.214571033267777 0.9838620747426479 Q 1.214571033267777 0.9451625075061746 1.2320602607688755 0.8982764933542935 Q 1.249549488269974 0.8513904792024124 1.2800626085910396 0.8026439089333932 Q 1.310575728912105 0.7538973386643739 1.3522521859359993 0.7070113245124928 Q 1.3939286429598936 0.6601253103606117 1.442675213228913 0.6225420767944213 Q 1.4914217834979322 0.5849588432282309 1.5450057996715105 0.5596552800351522 Q 1.5985898158450889 0.5343517168420735 1.6536622769123779 0.5291421597140867 L 1.6536622769123779 0.5425381637574813 Q 1.6082647076542074 0.5559341678008759 1.566588250630313 0.583842509557948 Q 1.5249117936064187 0.61175085131502 1.488444893710511 0.6482177512109276 Q 1.4519779938146036 0.6846846511068352 1.4222090959403935 0.7259889969073019 Q 1.3924401980661831 0.7672933427077685 1.3708577471073808 0.8074813548379522 Q 1.3492752961485783 0.8476693669681361 1.337739848222322 0.8837641556406161 Q 1.3262044002960653 0.9198589443130959 1.3262044002960653 0.9444182850593194 Q 1.3262044002960653 0.9578142891027139 1.3302976237537694 0.966744958464977 Q 1.3343908472114732 0.97567562782724 1.3418330716800257 0.97567562782724 Q 1.3500195185954336 0.97567562782724 1.3660203012028216 0.9622796237838455 Q 1.3820210838102096 0.9488836197404509 1.4028593123221567 0.9261848351113656 Q 1.423697540834104 0.9034860504822803 1.4482568815803274 0.8740892638314977 Q 1.4728162223265509 0.8446924771807152 1.4981197855196293 0.8126909119659391 Q 1.5234233487127082 0.7806893467511631 1.5483548006823593 0.7479435590895318 Q 1.5732862526520102 0.7151977714279006 1.5948687036108127 0.6861730960005457 Q 1.627614491272444 0.6415197491892304 1.6491969422312462 0.6124950737618753 Q 1.6707793931900488 0.5834703983345204 1.6864080645740092 0.5659811708334219 Q 1.7020367359579696 0.5484919433323233 1.7146885175545088 0.5417939413106261 Q 1.7273402991510483 0.5350959392889287 1.7422247480881534 0.5350959392889287 Q 1.7578534194721136 0.5350959392889287 1.7638071990469557 0.5432823862043366 Q 1.7697609786217978 0.5514688331197444 1.7697609786217978 0.5633763922694285 Q 1.7697609786217978 0.5730512840785469 1.7671562000578043 0.5834703983345204 Q 1.764551421493811 0.5938895125904939 1.7608303092595348 0.6020759595059018 Q 1.7578534194721136 0.6087739615275991 1.7478064164395677 0.6337054134972502 Q 1.7377594134070218 0.6586368654669013 1.7236191869167719 0.6932432092456706 Q 1.7094789604265221 0.72784955302444 1.6934781778191341 0.7672933427077685 Q 1.677477395211746 0.806737132391097 1.6629650574980686 0.8420876986167217 Q 1.648452719784391 0.8774382648423463 1.6372893830815622 0.9046023841525632 Q 1.6261260463787335 0.93176650346278 1.622404934144457 0.9406971728250431 M 2.4328631787698303 0.7911084610071367 Q 2.362162046318581 0.8789267097360569 2.291460913867332 0.9306501697924972 Q 2.2207597814160827 0.9823736298489374 2.1548960948693923 1.010654082829437 Q 2.0890324083227023 1.0389345358099369 2.030983057467992 1.0500978725127657 Q 1.9729337066132824 1.0612612092155944 1.928280359801967 1.0672149887904365 L 1.928280359801967 1.0538189847470418 Q 1.9781432637412693 1.0359576460225157 2.0216802768823015 1.0061887481483056 Q 2.065217290023334 0.9764198502740953 2.1009399674723865 0.9406971728250431 Q 2.1366626449214388 0.9049744953759908 2.164943097901938 0.8655307056926622 Q 2.193223550882438 0.8260869160093337 2.2125733345006746 0.787759459996288 Q 2.231923118118911 0.7494320039832424 2.241970121151457 0.7155698826513283 Q 2.252017124184003 0.6817077613194141 2.252017124184003 0.6571484205731907 Q 2.252017124184003 0.6422639716360856 2.2475517895028716 0.6322169686035397 Q 2.24308645482174 0.6221699655709937 2.234900007906332 0.6221699655709937 Q 2.2237366712035036 0.6221699655709937 2.204014776361839 0.6392870818486646 Q 2.184292881520175 0.6564041981263354 2.158245095880241 0.685800984777118 Q 2.132197310240307 0.7151977714279006 2.102428412366097 0.7538973386643739 Q 2.0726595144918867 0.7925969059008472 2.041402171723966 0.835761807818452 Q 2.010144828956045 0.8789267097360569 1.9800038198584073 0.9239521677707998 Q 1.9498628107607694 0.9689776258055428 1.9238150251208355 1.0102819716060094 Q 1.8977672394809015 1.0515863174064761 1.877301122192382 1.0873089948555283 Q 1.8568350049038624 1.1230316723045808 1.8456716682010337 1.1475910130508042 Q 1.8315314417107837 1.1781041333718696 1.816274881550251 1.2134546995974942 Q 1.8010183213897184 1.248805265823119 1.7857617612291856 1.2849000544955989 Q 1.7705052010686528 1.3209948431680787 1.756364974578403 1.355601186946848 Q 1.7422247480881532 1.3902075307256174 1.7295729664916137 1.4199764285998278 L 1.6246376014850228 1.452722216261459 Q 1.6358009381878515 1.4274186530683801 1.648452719784391 1.3980218664175976 Q 1.6611045013809302 1.3686250797668151 1.6741283942008973 1.3381119594457496 Q 1.6871522870208642 1.307598839124684 1.7001761798408312 1.276713607580191 Q 1.713200072660798 1.2458283760356978 1.7251076318104823 1.2175479230551982 Q 1.7526438623441267 1.1513121252850804 1.7809243153246264 1.0850763275149626 L 1.9885623779972428 0.5894241779093624 Q 1.977399041294414 0.6072855166338886 1.9621424811338812 0.6288679675926909 Q 1.9468859209733484 0.6504504185514934 1.9260476924614012 0.6783587603085655 Q 1.9052094639494541 0.7062671020656375 1.8776732334158097 0.7419897795146898 Q 1.8501370028821653 0.7777124569637421 1.8136701029862576 0.8223658037750574 L 1.7950645418148763 0.8074813548379522 Q 1.841206333519902 0.750920448876953 1.8750684548518162 0.7070113245124928 Q 1.9089305761837303 0.6631022001480327 1.9338620281533814 0.6292400788161185 Q 1.9587934801230324 0.5953779574842044 1.976282707624131 0.5697022830676981 Q 1.9937719351252294 0.5440266086511918 2.0067958279451963 0.5220720464689618 Q 2.0198197207651636 0.5001174842867318 2.030238835021137 0.4811398118919228 Q 2.0406579492771106 0.4621621394971137 2.0510770635330844 0.44132391098516655 L 2.0659615124701896 0.4056012335361143 L 2.1567566509865306 0.4056012335361143 L 1.9640030372510193 0.864786483245807 Q 1.9610261474635984 0.8714844852675043 1.9610261474635984 0.8774382648423463 Q 1.9610261474635984 0.8848804893108989 1.966235704591585 0.8848804893108989 Q 1.971445261719572 0.8848804893108989 1.9796317086349797 0.8744613750549253 Q 1.983352820869256 0.8692518179269385 1.996376713689223 0.8510183679789848 Q 2.00940060650919 0.832784918031031 2.027634056457144 0.8074813548379522 Q 2.0458675064050973 0.7821777916448736 2.0674499573639 0.7531531162175187 Q 2.0890324083227023 0.7241284407901637 2.110242748058077 0.6962200990330916 Q 2.1314530877934517 0.6683117572760195 2.1508028714116882 0.6448687502000789 Q 2.1701526550299253 0.6214257431241383 2.184292881520175 0.6072855166338886 Q 2.2200155589692274 0.5715628391848363 2.2475517895028716 0.5499803882260339 Q 2.2750880200365162 0.5283979372672315 2.3033684730170156 0.5283979372672315 Q 2.312299142379279 0.5283979372672315 2.32309036785868 0.5324911607249354 Q 2.333881593338081 0.5365843841826393 2.343184373923772 0.5466313872151852 Q 2.3524871545094626 0.5566783902477311 2.3588130453077323 0.5737955065254021 Q 2.365138936106002 0.590912622803073 2.365138936106002 0.6169604084430069 Q 2.365138936106002 0.6675675348291643 2.341323817806634 0.7237563295667361 Q 2.3175086995072656 0.7799451243043078 2.277320687377082 0.8335291404778863 Q 2.2371326752468983 0.8871131566514647 2.185409215190458 0.9339991708033457 Q 2.1336857551340174 0.9808851849552269 2.0778690716198733 1.0136309726168582 Q 2.1031726348129522 1.0061887481483056 2.1418722020494254 0.98981585431749 Q 2.1805717692858986 0.9734429604866743 2.2255972273206415 0.9455346187296022 Q 2.270622685355385 0.9176262769725302 2.319369255624404 0.8763219311720635 Q 2.368115825893423 0.8350175853715968 2.414257617598449 0.7762240120700317 L 2.4328631787698303 0.7911084610071367 M 3.122013164557797 0.8856247117577541 Q 3.1004307135989944 0.9518605095278719 3.0699175932779292 0.9905600767643452 Q 3.0394044729568637 1.0292596440008186 3.0070307965186602 1.0493536500659104 Q 2.9746571200804564 1.0694476561310022 2.9433997773125355 1.0750293244824167 Q 2.9121424345446147 1.0806109928338312 2.8875830937983915 1.0806109928338312 Q 2.850371971455629 1.0806109928338312 2.81874251746428 1.0709361010247127 Q 2.787113063472932 1.0612612092155944 2.758832610492432 1.045632537831634 Q 2.7305521575119327 1.0300038664476738 2.705992816765709 1.0102819716060094 Q 2.681433476019486 0.9905600767643452 2.659106802613828 0.9704660706992533 Q 2.618174568036789 1.0195847521917 2.5698001089911973 1.0489815388424828 Q 2.5214256499456056 1.0783783254932653 2.463376299090896 1.0783783254932653 Q 2.443282293025804 1.0783783254932653 2.4228161757372844 1.0720524346949958 Q 2.4023500584487647 1.065726543896726 2.3856050533945217 1.052702651076759 Q 2.368860048340278 1.0396787582567921 2.358440934084305 1.0192126409682725 Q 2.348021819828331 0.998746523679753 2.348021819828331 0.9704660706992533 Q 2.348021819828331 0.9414413952718983 2.3603014902014428 0.9146493871851091 Q 2.372581160574555 0.88785737909832 2.3945357227567845 0.8673912618098004 Q 2.4164902849390146 0.8469251445212809 2.4466312940366524 0.8350175853715968 Q 2.4767723031342905 0.8231100262219126 2.5124949805833428 0.8231100262219126 Q 2.548217658032395 0.8231100262219126 2.579847112023743 0.8383665863824454 Q 2.611476566015092 0.8536231465429782 2.642733908783012 0.8759498199486359 Q 2.66506058218867 0.832784918031031 2.685154588253762 0.7825499028683013 Q 2.705248594318854 0.7323148877055715 2.7234820442668077 0.6783587603085655 Q 2.7417154942147612 0.6244026329115595 2.758088388045577 0.5693301718442705 Q 2.7744612818763925 0.5142577107769816 2.790089953260353 0.46067369460340324 Q 2.8183704062408528 0.36094788672479894 2.8488835265619183 0.2880140869329839 Q 2.8793966468829835 0.2150802871411689 2.911026100874332 0.1641010495315839 Q 2.9426555548656803 0.11312181192199888 2.9746571200804564 0.08074813548379522 Q 3.0066586852952324 0.04837445904559168 3.037916028063153 0.030513120321065568 Q 3.069173370831074 0.012651781596539236 3.0996864911521396 0.006325890798269729 Q 3.1301996114732047 0 3.15922428690056 0 Q 3.1964354092433225 0 3.2254600846706776 0.010419114255973527 Q 3.2544847600980322 0.020838228511947054 3.2745787661631245 0.039071678459901005 Q 3.2946727722282163 0.05730512840785473 3.30509188648419 0.08149235793065046 Q 3.3155110007401634 0.1056795874534463 3.3155110007401634 0.1332158179870907 Q 3.3155110007401634 0.1607520485207352 3.30509188648419 0.1856835004903863 Q 3.2946727722282163 0.21061495246003736 3.27681143350369 0.23182529219541215 Q 3.258950094779164 0.25303563193078693 3.2347628652563682 0.26940852576160257 Q 3.2105756357335724 0.2857814195924181 3.1837836276467835 0.29620053384839173 L 3.1614569542411255 0.20912650756632678 Q 3.180806737859362 0.20838228511947154 3.2005286327010265 0.20280061676805716 Q 3.2202505275426905 0.19721894841664278 3.235879198926651 0.1860556117138139 Q 3.2515078703106113 0.17489227501098503 3.261554873343157 0.1585193811801694 Q 3.2716018763757035 0.14214648734935387 3.2716018763757035 0.11907559149684088 Q 3.2716018763757035 0.10270269766602524 3.265275985577434 0.08595769261178199 Q 3.258950094779164 0.06921268755753873 3.245181979512342 0.0565609059609995 Q 3.2314138642455195 0.04390912436446004 3.209087190839862 0.03572267744905222 Q 3.1867605174342044 0.0275362305336444 3.1547589522194284 0.0275362305336444 Q 3.118292052323521 0.0275362305336444 3.0874068207790275 0.04763023659873644 Q 3.0565215892345345 0.06772424266382826 3.0304738035946004 0.10195847521917001 Q 3.0044260179546667 0.13619270777451176 2.9828435669958644 0.18196238825611 Q 2.9612611160370617 0.22773206873770824 2.9426555548656803 0.2783391951238656 Q 2.924049993694299 0.328946321510023 2.9076770998634833 0.3821582264601737 Q 2.8913042060326677 0.43537013141032455 2.8771639795424178 0.4852330353496267 Q 2.8615353081584574 0.5373286066294946 2.842929746987076 0.5942616238139216 Q 2.8243241858156947 0.6511946409983487 2.8023696236334645 0.7077555469593481 Q 2.780415061451235 0.7643164529203474 2.7543672758113007 0.8182725803173535 Q 2.728319490171367 0.8722287077143596 2.6978063698503014 0.9183704994193854 Q 2.7193888208091037 0.9347433932502011 2.742087605438189 0.9503720646341614 Q 2.7647863900672744 0.9660007360181218 2.7897178420369255 0.9779082951678059 Q 2.8146492940065766 0.98981585431749 2.8425576357636486 0.9972580787860426 Q 2.8704659775207206 1.0047003032545951 2.9017233202886414 1.0047003032545951 Q 2.9344691079502727 1.0047003032545951 2.9634937833776274 1.0002349685734635 Q 2.9925184588049825 0.995769633892332 3.0167056883277783 0.9820015186255098 Q 3.040892917850574 0.9682334033586876 3.0594984790219555 0.9429298401656089 Q 3.078104040193337 0.9176262769725302 3.089267376896166 0.8759498199486359 L 3.122013164557797 0.8856247117577541 M 2.457422519516054 1.0411672031505026 Q 2.5028200887742242 1.0411672031505026 2.541519656010698 1.010654082829437 Q 2.580219223247171 0.9801409625083716 2.6137092333556575 0.9280453912285037 Q 2.5846845579283024 0.9012533831417145 2.5567762161712304 0.8830199331937607 Q 2.5288678744141584 0.864786483245807 2.4998431989868033 0.864786483245807 Q 2.4715627460063034 0.864786483245807 2.450352406270929 0.8744613750549253 Q 2.429142066535554 0.8841362668640437 2.414257617598449 0.8993928270245763 Q 2.3993731686613438 0.9146493871851091 2.3919309441927914 0.9328828371330629 Q 2.3844887197242386 0.9511162870810167 2.3844887197242386 0.9682334033586876 Q 2.3844887197242386 1.001723413467174 2.403838503342475 1.0214453083088384 Q 2.423188286960712 1.0411672031505026 2.457422519516054 1.0411672031505026 M 3.5313355103281876 0.23740696054682653 Q 3.5536621837338456 0.23740696054682653 3.5663139653303846 0.25340774315421455 Q 3.578965746926924 0.26940852576160257 3.578965746926924 0.29099097672040497 Q 3.578965746926924 0.30289853587008897 3.57487252346922 0.3151782062432007 Q 3.5707793000115164 0.3274578766163124 3.5629649643195362 0.33713276842543083 Q 3.555150628627556 0.3468076602345491 3.544359403148155 0.35313355103281874 Q 3.5335681776687533 0.35945944183108847 3.5194279511785034 0.35945944183108847 Q 3.497845500219701 0.35945944183108847 3.484449496176307 0.3427144367768452 Q 3.471053492132912 0.32596943172260195 3.471053492132912 0.3051312032106548 Q 3.471053492132912 0.2895025318266944 3.476635160484326 0.27722286145358266 Q 3.4822168288357407 0.26494319108047104 3.490775386974576 0.2560125217182079 Q 3.4993339451134116 0.24708185235594482 3.510125170592813 0.24224440645138567 Q 3.5209163960722143 0.23740696054682653 3.5313355103281876 0.23740696054682653 M 3.354954790423492 0.6407755267423751 Q 3.357187457764058 0.6355659696143883 3.357187457764058 0.6325890798269673 Q 3.357187457764058 0.6281237451458357 3.3545826792000644 0.6262631890286976 Q 3.3519779006360713 0.6244026329115595 3.3482567884017946 0.6244026329115595 Q 3.3408145639332423 0.6244026329115595 3.3348607843584004 0.6325890798269673 L 3.1875047398810596 0.8149235793065048 L 3.1688991787096783 0.8000391303693998 L 3.336349229252111 0.5931452901436387 Q 3.3556990128703474 0.5693301718442705 3.3769093526057223 0.5510967218963168 Q 3.398119692341097 0.532863271948363 3.42119058819361 0.532863271948363 Q 3.4427730391524123 0.532863271948363 3.452447930961531 0.5443987198746195 Q 3.462122822770649 0.5559341678008759 3.462122822770649 0.5700743942911257 Q 3.462122822770649 0.5842146207813756 3.456913265642662 0.6020759595059018 Q 3.4517037085146756 0.6199372982304279 3.4435172615992675 0.6392870818486646 L 3.3184878905275847 0.9406971728250431 Q 3.315511000740164 0.9481393972935956 3.3132783333995977 0.9552095105387206 Q 3.311045666059032 0.9622796237838455 3.311045666059032 0.9674891809118322 Q 3.311045666059032 0.9764198502740953 3.315138889516736 0.9793967400615163 Q 3.31923211297444 0.9823736298489374 3.325930114996137 0.9823736298489374 Q 3.336349229252111 0.9823736298489374 3.351233678189216 0.9719545155929639 Q 3.366118127126321 0.9615354013369902 3.3824910209571364 0.9414413952718983 L 3.5186837287316486 0.7732471222826105 L 3.53728928990303 0.7881315712197157 L 3.3728161291480183 0.9913042992112004 Q 3.354954790423492 1.0136309726168582 3.339326119039532 1.0285154215539631 Q 3.3236974476555714 1.0433998704910683 3.3099293323887493 1.0519584286299037 Q 3.296161217121927 1.0605169867687392 3.2823931018551047 1.0642380990030156 Q 3.2686249865882826 1.0679592112372918 3.2544847600980327 1.0679592112372918 Q 3.232158086692375 1.0679592112372918 3.21727363775527 1.054935318417325 Q 3.202389188818165 1.0419114255973578 3.202389188818165 1.021817419532266 Q 3.202389188818165 1.0032118583608844 3.2113198581804276 0.9779082951678059 Q 3.220250527542691 0.9526047319747272 3.2358791989266513 0.9161378320788196 L 3.354954790423492 0.6407755267423751 M 3.68315688948666 0.6407755267423751 Q 3.685389556827226 0.6355659696143883 3.685389556827226 0.6325890798269673 Q 3.685389556827226 0.6281237451458357 3.6827847782632324 0.6262631890286976 Q 3.6801799996992393 0.6244026329115595 3.6764588874649626 0.6244026329115595 Q 3.6690166629964103 0.6244026329115595 3.6630628834215684 0.6325890798269673 L 3.5157068389442276 0.8149235793065048 L 3.4971012777728463 0.8000391303693998 L 3.664551328315279 0.5931452901436387 Q 3.6839011119335154 0.5693301718442705 3.7051114516688903 0.5510967218963168 Q 3.726321791404265 0.532863271948363 3.749392687256778 0.532863271948363 Q 3.7709751382155803 0.532863271948363 3.780650030024699 0.5443987198746195 Q 3.790324921833817 0.5559341678008759 3.790324921833817 0.5700743942911257 Q 3.790324921833817 0.5842146207813756 3.78511536470583 0.6020759595059018 Q 3.7799058075778436 0.6199372982304279 3.7717193606624355 0.6392870818486646 L 3.668272440549555 0.8826478219703331 Q 3.6638071058684236 0.8930669362263067 3.6638071058684236 0.8990207158011487 Q 3.6638071058684236 0.9064629402697013 3.6697608854432655 0.9064629402697013 Q 3.6779473323586735 0.9064629402697013 3.6876222241677916 0.8915784913325961 L 3.84316471556054 0.6601253103606117 Q 3.8669798338599084 0.6244026329115595 3.885957506254717 0.5994711809419084 Q 3.9049351786495263 0.5745397289722574 3.9216801837037694 0.558911057588297 Q 3.938425188758013 0.5432823862043366 3.9536817489185454 0.5362122729592117 Q 3.9689383090790784 0.5291421597140867 3.985311202909894 0.5291421597140867 Q 4.0135916558903935 0.5291421597140867 4.028476104827499 0.5403054964169156 Q 4.043360553764604 0.5514688331197444 4.043360553764604 0.5730512840785469 Q 4.043360553764604 0.5857030656750861 4.039639441530327 0.5994711809419084 Q 4.035918329296051 0.6132392962087306 4.032197217061775 0.6236584104647042 L 3.9027025113089606 0.9406971728250431 Q 3.8997256215215397 0.9481393972935956 3.897492954180974 0.9552095105387206 Q 3.895260286840408 0.9622796237838455 3.895260286840408 0.9674891809118322 Q 3.895260286840408 0.9764198502740953 3.899353510298112 0.9793967400615163 Q 3.903446733755816 0.9823736298489374 3.910144735777513 0.9823736298489374 Q 3.9205638500334867 0.9823736298489374 3.935448298970592 0.9719545155929639 Q 3.950332747907697 0.9615354013369902 3.9667056417385127 0.9414413952718983 L 4.1028983495130245 0.7732471222826105 L 4.121503910684406 0.7881315712197157 L 3.957030749929394 0.9913042992112004 Q 3.939169411204868 1.0136309726168582 3.9235407398209077 1.0285154215539631 Q 3.9079120684369473 1.0433998704910683 3.894143953170125 1.0519584286299037 Q 3.880375837903303 1.0605169867687392 3.8666077226364806 1.0642380990030156 Q 3.8528396073696585 1.0679592112372918 3.8386993808794085 1.0679592112372918 Q 3.816372707473751 1.0679592112372918 3.801488258536646 1.054935318417325 Q 3.7866038095995407 1.0419114255973578 3.7866038095995407 1.021817419532266 Q 3.7866038095995407 1.0032118583608844 3.7955344789618035 0.9779082951678059 Q 3.804465148324067 0.9526047319747272 3.820093819708027 0.9161378320788196 L 3.9406578560985785 0.6311006349332567 Q 3.9428905234391443 0.62589107780527 3.9428905234391443 0.6199372982304279 Q 3.9428905234391443 0.6050528492933228 3.9287502969488943 0.6050528492933228 Q 3.9227965173740524 0.6050528492933228 3.9157264041289275 0.6087739615275991 Q 3.9086562908838025 0.6124950737618753 3.90121406641525 0.6236584104647042 L 3.6556206589530156 0.9883274094237794 Q 3.626595983525661 1.0314923113413843 3.604641421343431 1.049725761289338 Q 3.5826868591612007 1.0679592112372918 3.5618486306492536 1.0679592112372918 Q 3.527614398093912 1.0679592112372918 3.527614398093912 1.0352134235756605 Q 3.527614398093912 1.0180963072979896 3.5361729562327473 0.9927927441049109 Q 3.5447315143715827 0.9674891809118322 3.559615963308688 0.93176650346278 L 3.68315688948666 0.6407755267423751 L 3.68315688948666 0.6407755267423751 M 4.450450232194429 1.0002349685734635 Q 4.463846236237823 1.0002349685734635 4.477242240281218 0.9946533002220491 Q 4.490638244324613 0.9890716318706347 4.502917914697725 0.9808851849552269 Q 4.515197585070836 0.9726987380398191 4.5259888105502375 0.9622796237838455 Q 4.536780036029638 0.9518605095278719 4.544966482945046 0.9414413952718983 L 4.681159190719558 0.7732471222826105 L 4.69976475189094 0.7881315712197157 L 4.535291591135928 0.9913042992112004 Q 4.498824691240021 1.0359576460225157 4.46905579336581 1.0519584286299037 Q 4.4392868954916 1.0679592112372918 4.406541107829969 1.0672149887904365 Q 4.390168213999154 1.0672149887904365 4.374167431391765 1.059772764321884 Q 4.358166648784377 1.0523305398533314 4.345886978411265 1.0389345358099369 Q 4.333607308038154 1.0255385317665422 4.325792972346173 1.0069329705951608 Q 4.3179786366541935 0.9883274094237794 4.3179786366541935 0.9660007360181218 Q 4.3179786366541935 0.9362318381439115 4.3302583070273055 0.9083234963868394 Q 4.342537977400417 0.8804151546297674 4.362259872242081 0.8551115914366887 Q 4.3819817670837455 0.82980802824361 4.406168996606541 0.806737132391097 Q 4.430356226129337 0.7836662365385841 4.4549155668755605 0.762828008026637 Q 4.479474907621784 0.7419897795146898 4.495103579005744 0.7222678846730255 Q 4.5107322503897045 0.7025459898313613 4.520035030975396 0.6843125398834076 Q 4.529337811561086 0.6660790899354538 4.532686812571934 0.6489619736577829 Q 4.536035813582783 0.631844857380112 4.536035813582783 0.6162161859961517 Q 4.536035813582783 0.6043086268464675 4.529709922784513 0.5961221799310596 Q 4.523384031986244 0.5879357330156519 4.514453362623981 0.5879357330156519 Q 4.501801581027442 0.5879357330156519 4.48952191065433 0.6002154033887637 Q 4.477242240281218 0.6124950737618753 4.469800015812665 0.6236584104647042 L 4.227183498137852 0.9860947420832137 Q 4.198158822710497 1.0292596440008186 4.176576371751695 1.0482373163956276 Q 4.154993920792893 1.0672149887904365 4.128946135152958 1.0672149887904365 Q 4.111829018875287 1.0672149887904365 4.104758905630162 1.058656430651601 Q 4.097688792385037 1.0500978725127657 4.097688792385037 1.0352134235756605 Q 4.098433014831893 1.0180963072979896 4.106619461747301 0.9924206328814833 Q 4.114805908662708 0.966744958464977 4.129690357599814 0.93176650346278 L 4.274813734736589 0.5827261758876652 Q 4.262906175586904 0.6013317370590465 4.247277504202944 0.6240305216881319 Q 4.231648832818983 0.646729306317217 4.210066381860181 0.6757539817445721 Q 4.188483930901379 0.704778657171927 4.160575589144306 0.7405013346209793 Q 4.132667247387235 0.7762240120700317 4.096944569938183 0.8201331364344917 L 4.078339008766801 0.8052486874973865 Q 4.128201912706103 0.7442224468552556 4.165040923825439 0.6954758765862363 Q 4.201879934944773 0.646729306317217 4.22904405425499 0.6072855166338886 Q 4.2562081735652075 0.56784172695056 4.275557957183444 0.5362122729592117 Q 4.294907740801681 0.5045828189678633 4.309792189738785 0.47667447721079126 Q 4.324676638675891 0.44876613545371913 4.336956309049002 0.42383468348406805 Q 4.349235979422114 0.398903231514417 4.3626319834655085 0.37285544587448305 L 4.451194454641284 0.16000782607387998 L 4.54124537071077 0.16000782607387998 Q 4.485428687196626 0.29247942161411544 4.443008007725877 0.39406578560985783 Q 4.400587328255127 0.4956521496056002 4.368957874263779 0.5711907279614087 Q 4.33732842027243 0.646729306317217 4.3153738580902 0.6991969888205126 Q 4.29341929590797 0.7516646713238082 4.27927906941772 0.78589890387915 Q 4.2450448368623785 0.8670191505863728 4.238346834840681 0.8826478219703331 Q 4.23536994505326 0.8908342688857409 4.23536994505326 0.896788048460583 Q 4.23536994505326 0.9064629402697013 4.241323724628102 0.9064629402697013 Q 4.24951017154351 0.9064629402697013 4.2591850633526285 0.8915784913325961 L 4.435565783257323 0.6206815206772831 Q 4.461613568897258 0.5804935085470994 4.490638244324613 0.554817834130593 Q 4.519662919751967 0.5291421597140867 4.550920262519888 0.5291421597140867 Q 4.562827821669573 0.5291421597140867 4.574735380819257 0.532863271948363 Q 4.58664293996894 0.5365843841826393 4.596689943001486 0.54588716476833 Q 4.606736946034032 0.5551899453540207 4.613062836832302 0.5708186167379811 Q 4.619388727630572 0.5864472881219414 4.619388727630572 0.6102624064213096 Q 4.619388727630572 0.646729306317217 4.602271611352901 0.6735213144040063 Q 4.58515449507523 0.7003133224907956 4.559478820658724 0.7230121071198807 Q 4.533803146242217 0.7457108917489661 4.5036621371445795 0.765804897814058 Q 4.473521128046942 0.78589890387915 4.4478454536304355 0.8093419109550904 Q 4.422169779213929 0.832784918031031 4.405052662936258 0.8610653710115307 Q 4.387935546658587 0.8893458239920304 4.387935546658587 0.9280453912285037 Q 4.387935546658587 0.963768068677556 4.405424774159686 0.9820015186255098 Q 4.422914001660784 1.0002349685734635 4.450450232194429 1.0002349685734635" fill="#343432" fill-rule="nonzero"></path></g><g></g></g><defs><clipPath id="SvgjsClipPath29898"><path d=" M 0.4349720159704722 -4.295539569338732 h 3.8767067341018757 v 4.045539569338732 h -3.8767067341018757 Z"></path></clipPath><clipPath id="SvgjsClipPath29893ec7bcbac-aa6b-4c7d-b034-bbaa2b3c4a33"><path d=" M 0.4349720159704725 -4.295539569338732 L 4.311678750072348 -4.295539569338732 L 4.311678750072348 -0.25 L 0.43497201597047286 -0.25 Z"></path></clipPath></defs></svg>